<svg width="18" height="22" viewBox="0 0 18 22" fill="none" xmlns="http://www.w3.org/2000/svg">
<path fill-rule="evenodd" clip-rule="evenodd" d="M11.1001 1.39077C11.8333 0.672275 12.8204 0.272164 13.8469 0.277394C14.8734 0.282625 15.8564 0.692775 16.5822 1.41871C17.308 2.14464 17.7179 3.12768 17.723 4.1542C17.728 5.18071 17.3277 6.16774 16.6091 6.90077L9.0151 14.4948C8.5871 14.9228 8.3251 15.1848 8.0351 15.4118C7.69169 15.6793 7.32017 15.9087 6.9271 16.0958C6.5931 16.2548 6.2421 16.3718 5.6681 16.5628L2.9961 17.4538L2.3541 17.6678C2.07245 17.7619 1.77016 17.7756 1.48113 17.7075C1.1921 17.6394 0.927773 17.492 0.717799 17.2821C0.507825 17.0721 0.360511 16.8078 0.292382 16.5187C0.224253 16.2297 0.238006 15.9274 0.332097 15.6458L1.4371 12.3318C1.6281 11.7578 1.7451 11.4068 1.9041 11.0728C2.09154 10.68 2.32123 10.3088 2.5891 9.96577C2.8161 9.67477 3.0771 9.41277 3.5051 8.98577L11.1001 1.39077ZM2.9601 15.8838L2.1161 15.0388L2.8441 12.8538C3.0561 12.2178 3.1441 11.9588 3.2581 11.7188C3.3981 11.4238 3.5711 11.1458 3.7711 10.8888C3.9351 10.6788 4.1271 10.4848 4.6011 10.0098L10.4921 4.11977C10.7982 4.88452 11.2572 5.5787 11.8411 6.15977C12.4223 6.74327 13.1164 7.20197 13.8811 7.50777L7.9901 13.3978C7.5151 13.8728 7.3221 14.0648 7.1121 14.2278C6.85465 14.4284 6.57638 14.6007 6.2821 14.7418C6.0421 14.8558 5.7821 14.9438 5.1461 15.1558L2.9611 15.8848L2.9601 15.8838ZM15.0761 6.31177C14.922 6.27773 14.7701 6.23465 14.6211 6.18277C13.9731 5.95624 13.385 5.58559 12.9011 5.09877C12.4144 4.61471 12.0438 4.02665 11.8171 3.37877C11.7649 3.22978 11.7215 3.07785 11.6871 2.92377L12.1601 2.45177C12.6119 2.0146 13.2173 1.77248 13.846 1.77764C14.4746 1.78279 15.076 2.0348 15.5205 2.47933C15.9651 2.92385 16.2171 3.52528 16.2222 4.15391C16.2274 4.78254 15.9853 5.38802 15.5481 5.83977L15.0761 6.31177ZM0.250097 20.9998C0.250097 20.8009 0.329114 20.6101 0.469766 20.4694C0.610419 20.3288 0.801184 20.2498 1.0001 20.2498H17.0001V21.7498H1.0001C0.801184 21.7498 0.610419 21.6708 0.469766 21.5301C0.329114 21.3895 0.250097 21.1987 0.250097 20.9998Z" fill="#545F71"/>
</svg>
