<svg width="22" height="22" viewBox="0 0 22 22" fill="none" xmlns="http://www.w3.org/2000/svg">
<path d="M9.02997 7.72015C8.8878 7.58767 8.69975 7.51555 8.50545 7.51898C8.31115 7.52241 8.12576 7.60112 7.98835 7.73853C7.85094 7.87595 7.77222 8.06133 7.7688 8.25563C7.76537 8.44993 7.83749 8.63798 7.96997 8.78015L9.93997 10.7502L7.96997 12.7202C7.89628 12.7888 7.83718 12.8716 7.79619 12.9636C7.7552 13.0556 7.73316 13.1549 7.73138 13.2556C7.7296 13.3563 7.74813 13.4564 7.78585 13.5498C7.82357 13.6431 7.87971 13.728 7.95093 13.7992C8.02215 13.8704 8.10698 13.9266 8.20037 13.9643C8.29376 14.002 8.39379 14.0205 8.49449 14.0187C8.5952 14.017 8.69451 13.9949 8.78651 13.9539C8.87851 13.9129 8.96131 13.8538 9.02997 13.7802L11 11.8102L12.97 13.7802C13.1121 13.9126 13.3002 13.9848 13.4945 13.9813C13.6888 13.9779 13.8742 13.8992 14.0116 13.7618C14.149 13.6244 14.2277 13.439 14.2311 13.2447C14.2346 13.0504 14.1625 12.8623 14.03 12.7202L12.06 10.7502L14.03 8.78015C14.1037 8.71149 14.1628 8.62869 14.2038 8.53669C14.2447 8.44469 14.2668 8.34538 14.2686 8.24468C14.2703 8.14397 14.2518 8.04394 14.2141 7.95056C14.1764 7.85717 14.1202 7.77233 14.049 7.70112C13.9778 7.6299 13.893 7.57375 13.7996 7.53603C13.7062 7.49831 13.6062 7.47979 13.5054 7.48156C13.4047 7.48334 13.3054 7.50538 13.2134 7.54637C13.1214 7.58736 13.0386 7.64647 12.97 7.72015L11 9.69015L9.02997 7.72015Z" fill="#545F71" fill-opacity="0.5"/>
<path fill-rule="evenodd" clip-rule="evenodd" d="M11 0C5.063 0 0.25 4.813 0.25 10.75C0.25 16.687 5.063 21.5 11 21.5C16.937 21.5 21.75 16.687 21.75 10.75C21.75 4.813 16.937 0 11 0ZM1.75 10.75C1.75 8.29675 2.72455 5.94397 4.45926 4.20926C6.19397 2.47455 8.54675 1.5 11 1.5C13.4533 1.5 15.806 2.47455 17.5407 4.20926C19.2754 5.94397 20.25 8.29675 20.25 10.75C20.25 13.2033 19.2754 15.556 17.5407 17.2907C15.806 19.0254 13.4533 20 11 20C8.54675 20 6.19397 19.0254 4.45926 17.2907C2.72455 15.556 1.75 13.2033 1.75 10.75Z" fill="#545F71" fill-opacity="0.5"/>
</svg>
